<svg xmlns="http://www.w3.org/2000/svg" aria-hidden="true" style="position:absolute;width:0;height:0;overflow:hidden">
  <defs>
    <symbol id="icon-arrow-right" viewBox="0 0 32 32">
      <path fill="none" stroke="#ccc" stroke-linecap="round" stroke-linejoin="round" stroke-width="2.667" d="M5.333 16h21.333M18.667 24l8-8-8-8" style="stroke:var(--color1, #ccc)"/>
    </symbol>
    <symbol id="icon-arrow-left" viewBox="0 0 32 32">
      <path fill="none" stroke="#ccc" stroke-linecap="round" stroke-linejoin="round" stroke-width="2.667" d="M26.667 16H5.334M13.333 24l-8-8 8-8" style="stroke:var(--color1, #ccc)"/>
    </symbol>
    <symbol id="icon-arrow-down" viewBox="0 0 32 32">
      <path stroke-linecap="round" stroke-width="2" d="m22 13-6 6-6-6"/>
    </symbol>
    <symbol id="icon-arrow-up" viewBox="0 0 32 32">
      <path stroke-linecap="round" stroke-width="2" d="m22 19-6-6-6 6"/>
    </symbol>
    <symbol id="icon-arrow-order" viewBox="0 0 32 32">
      <path fill="#00b068" d="M1.067 14.933a1.067 1.067 0 0 0 0 2.134v-2.133zm30.621 1.821a1.065 1.065 0 0 0 0-1.508L24.9 8.458a1.065 1.065 0 1 0-1.508 1.508L29.426 16l-6.034 6.034a1.065 1.065 0 1 0 1.508 1.508l6.788-6.788zm-30.621.313h29.867v-2.133H1.067v2.133z" style="fill:var(--color2, #00b068)"/>
    </symbol>
    <symbol id="icon-arrow-visit" viewBox="0 0 32 32">
      <path fill="none" stroke="#00b068" stroke-linecap="round" stroke-linejoin="round" stroke-width="2.667" d="M6.333 25.667 25.666 6.334m.001-.001h-18m18 0v18" style="stroke:var(--color2, #00b068)"/>
    </symbol>
    <symbol id="icon-input-success" viewBox="0 0 32 32">
      <path fill="#00b068" d="M16 2a14.002 14.002 0 0 1 14 14c0 3.713-1.475 7.274-4.101 9.899a13.996 13.996 0 0 1-19.798 0 13.996 13.996 0 0 1 0-19.798A13.998 13.998 0 0 1 16 2zm-1.744 16.762-3.11-3.112a1.196 1.196 0 0 0-.849-.351 1.2 1.2 0 0 0-.849 2.049l3.96 3.96a1.197 1.197 0 0 0 1.698 0l8.2-8.202a1.187 1.187 0 0 0 .358-.85 1.203 1.203 0 0 0-.742-1.115c-.146-.06-.303-.091-.462-.091s-.315.032-.461.094a1.202 1.202 0 0 0-.39.264l-7.354 7.354z" style="fill:var(--color2, #00b068)"/>
    </symbol>
    <symbol id="icon-cross" viewBox="0 0 32 32">
      <path stroke-linecap="round" stroke-linejoin="round" stroke-width="2" d="M24 8 8 24M8 8l16 16"/>
    </symbol>
    <symbol id="icon-burger" viewBox="0 0 32 32">
      <path d="M5.334 23.027v-1.333h21.333v1.333H5.334zm0-6.36v-1.333h21.333v1.333H5.334zm0-6.36V8.974h21.333v1.333H5.334z"/>
    </symbol>
    <symbol id="icon-featured-4" viewBox="0 0 32 32">
      <path fill="#00b068" d="M5.333 0h21.333a5.333 5.333 0 0 1 5.333 5.333v21.333a5.333 5.333 0 0 1-5.333 5.333H5.333A5.333 5.333 0 0 1 0 26.666V5.333A5.333 5.333 0 0 1 5.333 0z" opacity=".1" style="fill:var(--color2, #00b068)"/>
      <path fill="none" stroke="#00b068" stroke-linecap="round" stroke-linejoin="round" stroke-width="1.333" d="M20.108 9.333h-8.217a.558.558 0 0 0-.558.558 6.7 6.7 0 0 0 1.962 4.737l.813.813c.081.081.121.121.15.16a.668.668 0 0 1 0 .797c-.029.039-.069.079-.15.16l-.813.813a6.7 6.7 0 0 0-1.962 4.737c0 .308.25.558.558.558h8.217c.308 0 .558-.25.558-.558a6.7 6.7 0 0 0-1.962-4.737l-.813-.813a1.653 1.653 0 0 1-.15-.16.668.668 0 0 1 0-.797c.029-.039.069-.079.15-.16l.813-.813a6.7 6.7 0 0 0 1.962-4.737.558.558 0 0 0-.558-.558z" style="stroke:var(--color2, #00b068)"/>
    </symbol>
    <symbol id="icon-featured-3" viewBox="0 0 32 32">
      <path fill="#00b068" d="M5.333 0h21.333a5.333 5.333 0 0 1 5.333 5.333v21.333a5.333 5.333 0 0 1-5.333 5.333H5.333A5.333 5.333 0 0 1 0 26.666V5.333A5.333 5.333 0 0 1 5.333 0z" opacity=".1" style="fill:var(--color2, #00b068)"/>
      <path fill="none" stroke="#00b068" stroke-linecap="round" stroke-linejoin="round" stroke-width="1.333" d="M16.519 18 14 15.482M9.333 22.666c1.333 0 3.072.228 3.983-.683a2.334 2.334 0 0 0-3.3-3.3c-.911.911 0 2.65-.683 3.983z" style="stroke:var(--color2, #00b068)"/>
      <path fill="none" stroke="#00b068" stroke-linecap="round" stroke-linejoin="round" stroke-width="1.333" d="M13.333 18.666c-.328-.328-.491-.491-.584-.663a1.332 1.332 0 0 1 .025-1.311c.099-.168.269-.325.609-.64l6.579-6.091a1.47 1.47 0 0 1 2.077 2.077l-6.091 6.579c-.315.34-.472.51-.64.609-.403.238-.9.247-1.311.025-.172-.093-.335-.256-.663-.584z" style="stroke:var(--color2, #00b068)"/>
    </symbol>
    <symbol id="icon-featured-2" viewBox="0 0 32 32">
      <path fill="#00b068" d="M5.333 0h21.333a5.333 5.333 0 0 1 5.333 5.333v21.333a5.333 5.333 0 0 1-5.333 5.333H5.333A5.333 5.333 0 0 1 0 26.666V5.333A5.333 5.333 0 0 1 5.333 0z" opacity=".1" style="fill:var(--color2, #00b068)"/>
      <path fill="none" stroke="#00b068" stroke-linecap="round" stroke-linejoin="round" stroke-width="1.333" d="M12.063 15.486a5.398 5.398 0 0 1-.063-.819c0-2.946 2.403-5.333 5.368-5.333s5.368 2.388 5.368 5.333c0 .665-.123 1.302-.347 1.89-.047.122-.07.183-.08.231s-.015.08-.016.129c-.001.049.005.102.019.21l.268 2.18c.029.236.044.354.004.44a.334.334 0 0 1-.171.168c-.087.037-.204.02-.44-.014l-2.123-.311c-.111-.016-.166-.024-.217-.024s-.084.004-.133.014-.113.034-.239.081a5.379 5.379 0 0 1-2.714.279m-3.459 2.727c1.977 0 3.579-1.642 3.579-3.667s-1.602-3.667-3.579-3.667S9.509 16.975 9.509 19c0 .407.065.799.184 1.164.051.155.076.232.084.285.009.055.01.086.007.142a1.563 1.563 0 0 1-.043.234l-.408 1.841 1.997-.273c.109-.015.163-.022.211-.022.05 0 .077.003.126.013.047.009.116.034.255.083a3.5 3.5 0 0 0 1.166.199z" style="stroke:var(--color2, #00b068)"/>
    </symbol>
    <symbol id="icon-featured-1" viewBox="0 0 32 32">
      <path fill="#00b068" d="M5.333 0h21.333a5.333 5.333 0 0 1 5.333 5.333v21.333a5.333 5.333 0 0 1-5.333 5.333H5.333A5.333 5.333 0 0 1 0 26.666V5.333A5.333 5.333 0 0 1 5.333 0z" opacity=".1" style="fill:var(--color2, #00b068)"/>
      <path fill="none" stroke="#00b068" stroke-linecap="round" stroke-linejoin="round" stroke-width="1.333" d="M21.333 22c0-.93 0-1.396-.115-1.774a2.67 2.67 0 0 0-1.778-1.778c-.379-.115-.844-.115-1.774-.115h-3.333c-.93 0-1.396 0-1.774.115a2.67 2.67 0 0 0-1.778 1.778c-.115.379-.115.844-.115 1.774M16 16a3 3 0 1 0 0-6 3 3 0 0 0 0 6z" style="stroke:var(--color2, #00b068)"/>
    </symbol>
    <symbol id="icon-geo" viewBox="0 0 32 32">
      <path fill="none" stroke="#00b068" stroke-linecap="round" stroke-linejoin="round" stroke-width="1.333" d="M20 14a4.003 4.003 0 0 1-4 4 4.003 4.003 0 0 1-4-4 4.003 4.003 0 0 1 4-4 4.003 4.003 0 0 1 4 4v0z" style="stroke:var(--color2, #00b068)"/>
      <path fill="none" stroke="#00b068" stroke-linecap="round" stroke-linejoin="round" stroke-width="1.333" d="M26 14c0 9.523-10 15-10 15S6 23.523 6 14a10.001 10.001 0 0 1 20 0v0z" style="stroke:var(--color2, #00b068)"/>
    </symbol>
    <symbol id="icon-mail" viewBox="0 0 32 32">
      <path fill="none" stroke="#00b068" stroke-linecap="round" stroke-linejoin="round" stroke-width="1.333" d="M29 9v14a3.004 3.004 0 0 1-3 3H6a3.004 3.004 0 0 1-3-3V9m26 0a3.004 3.004 0 0 0-3-3H6a3.004 3.004 0 0 0-3 3m26 0v.324a2.998 2.998 0 0 1-1.427 2.555l-10 6.153a3.004 3.004 0 0 1-3.146 0l-10-6.152A3.001 3.001 0 0 1 3 9.325V9" style="stroke:var(--color2, #00b068)"/>
    </symbol>
    <symbol id="icon-tel" viewBox="0 0 32 32">
      <path fill="none" stroke="#00b068" stroke-linecap="round" stroke-linejoin="round" stroke-width="1.333" d="M3 9c0 11.045 8.955 20 20 20h3a3.004 3.004 0 0 0 3-3v-1.829a1.5 1.5 0 0 0-1.136-1.455l-5.897-1.475a1.498 1.498 0 0 0-1.564.556l-1.293 1.724c-.376.501-1.025.723-1.613.507a16.028 16.028 0 0 1-9.524-9.524c-.216-.588.005-1.237.507-1.613l1.724-1.293c.484-.361.703-.979.556-1.564L9.285 4.137A1.498 1.498 0 0 0 7.83 3.001H6.001a3.004 3.004 0 0 0-3 3v3z" style="stroke:var(--color2, #00b068)"/>
    </symbol>
    <symbol id="icon-favicon" viewBox="0 0 32 32">
      <path fill="#f0f0f0" d="M4 0h24a4 4 0 0 1 4 4v24a4 4 0 0 1-4 4H4a4 4 0 0 1-4-4V4a4 4 0 0 1 4-4z" style="fill:var(--color3, #f0f0f0)"/>
      <path fill="#00b068" d="M3 9.5h2.579c1.665 0 2.789.075 3.373.225.589.15 1.037.396 1.343.739s.497.725.573 1.148c.076.418.115 1.242.115 2.473v4.553c0 1.167-.057 1.948-.172 2.345-.109.391-.303.699-.581.923a2.529 2.529 0 0 1-1.031.466c-.409.086-1.026.128-1.85.128H3.002v-13zm3.446 2.224v8.552c.497 0 .802-.096.917-.289.115-.198.172-.731.172-1.598v-5.051c0-.589-.019-.966-.057-1.132s-.126-.286-.262-.361c-.136-.08-.393-.12-.77-.12zM13.053 9.5H18.8v2.602h-2.3v2.465h2.153v2.473H16.5v2.859h2.53v2.602h-5.976v-13zM29 9.5l-1.752 13h-5.231l-1.989-13h3.635c.42 3.581.72 6.608.901 9.082.18-2.5.368-4.721.565-6.665l.237-2.417h3.635z" style="fill:var(--color2, #00b068)"/>
    </symbol>
  </defs>
</svg>
